<svg xmlns="http://www.w3.org/2000/svg" viewBox="0 0 446.85 396.98">
  <defs>
    <style>
      .cls-1,.cls-2{fill:#fff;}
      .cls-1{fill-rule:evenodd;}
    </style>
  </defs>
  <rect width="446.85" height="396.98" fill="#000"/>
  <g id="Layer_2" data-name="Layer 2">
    <g id="Layer_1-2" data-name="Layer 1">
      <path class="cls-1" d="M275.86,114.51,249,102.65l-.1.21L275,116.38l29.24,15.16.89-1.87.9-1.87Zm2.34-4.77L250,100.27c0,.07,0,.13-.07.19l27.57,11.22L308,124.09l.72-2,.72-1.94Zm1.15-5.15-28.6-6.77-.06.22,28.11,8.56,31.51,9.6.54-2,.54-2Zm1.16-5.94-29.15-3.73a1.55,1.55,0,0,1,0,.21l28.86,5.57,32.34,6.23.33-2,.33-2.06Zm.54-6L251.66,92a1.8,1.8,0,0,1,0,.22l29.29,2.5,32.82,2.81.11-2.07.11-2.08Zm32.82-6.71-.11-2.07L281,86.55,251.65,89c0,.08,0,.15,0,.23l29.38-.59L314,88Zm-1-9.47-.32-2.05-32.35,6.16L251.34,86a1.92,1.92,0,0,1,0,.22l29.16-3.66,32.68-4.11Zm-2-9.31-.54-2-31.53,9.52-28.13,8.49a1.66,1.66,0,0,1,.06.21l28.61-6.7,32.07-7.52ZM308,58.07l-.75-1.94L276.86,68.91,249.79,80.3c0,.07.05.14.08.22l27.74-9.67L308.71,60Zm-3.88-8.7-.94-1.84L274.3,63.42,248.57,77.6a1.86,1.86,0,0,1,.1.2l26.57-12.53,29.79-14Zm-4.77-8.23-1.13-1.75-27,18.84L247.07,75a2,2,0,0,1,.12.19L272.3,60l28.15-17.09Zm-5.61-7.7-1.31-1.61L267.51,53.39l-22.2,19.24.14.18L268.82,55l26.2-20Zm-6.39-7.07-1.46-1.45L263.37,49,243.31,70.44a1.21,1.21,0,0,1,.16.16l21.37-20.16,24-22.6ZM280.24,20l-1.62-1.3L258.79,45l-17.7,23.44.17.15L260.4,46.31l21.45-25Zm-7.72-5.58-1.75-1.12-17,28.22L238.67,66.72l.19.12,16.69-24.16,18.71-27.1Zm-8.26-4.73-1.86-.93L248.49,38.64l-12.4,26.61.2.1,14.06-25.78,15.76-28.91Zm-8.71-3.84-1.94-.73-10.7,31.14-9.55,27.77.22.08L244.85,37,257.49,6.62ZM246.48,3l-2-.52L237.1,34.55l-6.56,28.61.21.06,8.36-28.15,9.38-31.56ZM237.16,1l-2-.31-4,32.7-3.53,29.14.23,0,5.35-28.86,6-32.38ZM227.69.1,225.62,0l-.51,32.93-.45,29.36h.22L227.18,33,229.76.2ZM221.12,33,220.24,0l-2.07.12L216.1.27l3,32.8,2.62,29.24h.22Zm-6,.57L210.75.87l-2,.34-2.05.34L213,33.86l5.69,28.79.22,0Zm54.63,91.41-23.83-17.21-.13.17,22.69,18.68,25.43,20.93,1.27-1.64,1.26-1.65Zm3.35-5.05-25.51-14.61a.72.72,0,0,1-.11.19L272,121.65l27.49,18.14,1.08-1.77,1.09-1.76Z"/>
      <path class="cls-1" d="M265.85,129.52,244,110l-.15.17L264.42,131l23.11,23.46L289,153l1.43-1.5Zm-4.33,4.23L241.83,112l-.17.15,18.28,22.95,20.53,25.75L282,159.5l1.59-1.33Zm-4.75,3.77-17.3-23.7-.19.13,15.78,24.73,17.71,27.77,1.71-1.17,1.71-1.17Zm-5.12,3.24-14.71-25.37-.2.1,13.08,26.25,14.7,29.47,1.82-1,1.83-1Zm-5.43,2.68-12-26.77-.2.09,10.25,27.47,11.52,30.85,1.92-.79,1.92-.78Zm-5.68,2.11-9.09-27.89-.22.07,7.31,28.4L246.76,178l2-.58,2-.58ZM234.66,147l-6.11-28.68a1.6,1.6,0,0,1-.23,0l4.31,29L237.45,180l2-.37,2.05-.37Zm-6,.87-3.06-29.17-.23,0,1.23,29.3L228,181l2.07-.15,2.07-.15ZM222.4,118.8l-1.87,29.27-2.08,32.87,2.08.07,2.07.07V148.14l0-29.32-.23,0m-3-.26-4.92,28.92L209,179.92l4.11.57,3.47-32.75,3.09-29.17-.22,0M216.5,118l-7.92,28.24-8.9,31.7,2,.5,2,.49,6.88-32.19L216.73,118l-.23-.06m-2.84-.87-10.85,27.24-12.18,30.59,2,.71,1.95.71L204.77,145l9.11-27.86-.22-.08m-2.73-1.18-13.65,26L181.94,171l1.87.9,1.86.91,13.47-30.05,12-26.77-.21-.1m-2.6-1.46L192,138.86l-18.3,27.37,1.76,1.09,1.75,1.1L193.79,140l14.74-25.37-.2-.12m-2.43-1.71-18.77,22.54-21.08,25.3,1.63,1.28,1.64,1.27,19.44-26.57,17.32-23.68-.18-.14m-2.23-2-21,20.45-23.62,23,1.5,1.43,1.49,1.45,22.13-24.4,19.71-21.73-.16-.16m-2-2.18-23.07,18.13-25.9,20.34,1.33,1.59,1.33,1.59,24.57-21.94,21.89-19.54-.15-.17m-1.78-2.39L175,121.82l-27.89,17.51,1.16,1.72,1.16,1.72,26.73-19.23L200,106.4a2.14,2.14,0,0,1-.13-.19m-1.52-2.56L172,116.56l-29.58,14.49,1,1.83,1,1.84L173,118.39l25.49-14.54a2,2,0,0,1-.11-.2m-1.24-2.7L169.54,111l-30.92,11.31.77,1.92.77,1.93,30.16-13.24,26.87-11.79a1.67,1.67,0,0,1-.08-.2m-1-2.82-28.46,7.12-32,8,.57,2,.57,2,31.38-10,28-8.9-.06-.21m-.64-2.91-29.07,4.1-32.61,4.59.36,2,.35,2,32.26-6.64,28.75-5.91c0-.08,0-.16,0-.23m-.33-3-29.34,1-32.92,1.15.27,4.13L166,95.36l29.22-2.87a1.55,1.55,0,0,1,0-.22m-29.32-5L133,84.92,132.93,87l-.07,2.07,32.93.24,29.37.22V89.3Zm.66-6-32.42-5.75-.31,2.05-.3,2,32.73,3.7,29.18,3.3,0-.23Zm1.29-5.92-31.65-9.13-.51,2-.51,2,32.16,7.11L196,83.64l.06-.22Zm1.91-5.76L139.21,57.14l-.71,1.94-.72,2L169,71.48l27.86,9.32c0-.08,0-.15.08-.21ZM172.22,64l-29-15.53-.92,1.86-.91,1.86,30,13.67L198,78.07a2,2,0,0,1,.1-.21Zm3.07-5.22L148,40.29,146.93,42l-1.11,1.75,28.36,16.75,25.3,14.93.12-.18Zm3.59-4.88L153.73,32.66l-1.29,1.62-1.29,1.63L177.6,55.53,201.19,73a1.22,1.22,0,0,1,.15-.17ZM183,49.43,160.19,25.66l-1.46,1.48-1.45,1.48,24.24,22.29,21.64,19.9.15-.16Zm4.54-4-20.17-26-1.59,1.32L164.15,22l21.76,24.71L205.34,68.8a1.22,1.22,0,0,1,.17-.15Zm4.93-3.52-17.32-28-3.45,2.28,19,26.87,17,24,.18-.13Zm5.28-3L183.43,9.24l-1.84,1-1.83,1,16.12,28.72,14.38,25.62.21-.1Zm5.56-2.41-11.09-31-1.94.76L188.33,7l13,30.25,11.62,27,.21-.08Zm5.78-1.82-7.78-32-2,.55-2,.56,9.78,31.45,8.71,28.07a1.8,1.8,0,0,1,.22-.06Z"/>
      <path class="cls-2" d="M0,396.16v-57H27.54a36.53,36.53,0,0,1,13.08,2.2,29.12,29.12,0,0,1,9.82,6.11,26.87,26.87,0,0,1,6.23,9.09,29.94,29.94,0,0,1,0,22.33,26.56,26.56,0,0,1-6.19,9A28.6,28.6,0,0,1,40.62,394a36.77,36.77,0,0,1-13.08,2.2Zm13.85-9.45L12,383.94H27.13a21.28,21.28,0,0,0,7.62-1.26A14.47,14.47,0,0,0,43.47,374a18.14,18.14,0,0,0,1.1-6.32,17.78,17.78,0,0,0-1.1-6.27,14.6,14.6,0,0,0-3.3-5.18,15.82,15.82,0,0,0-5.46-3.54,20.3,20.3,0,0,0-7.58-1.3H11.73l2.12-2.61Z"/>
      <path class="cls-2" d="M86.78,396.89A23.2,23.2,0,0,1,75,394a20.73,20.73,0,0,1-7.9-7.95,22.93,22.93,0,0,1-2.85-11.49,23.24,23.24,0,0,1,2.89-11.69,20.84,20.84,0,0,1,8-8A23.72,23.72,0,0,1,87.1,352a24.6,24.6,0,0,1,7.09,1,23.57,23.57,0,0,1,5.79,2.57,16.8,16.8,0,0,1,4.11,3.54,9.3,9.3,0,0,1,2,3.91l-3,.17V352.89h13v43.27h-13.2V384.83l2.77.57a8.85,8.85,0,0,1-2,4.16,17.67,17.67,0,0,1-4.15,3.7,21.65,21.65,0,0,1-5.79,2.65,24,24,0,0,1-6.92,1m3.42-11a15.5,15.5,0,0,0,7-1.43,10.74,10.74,0,0,0,4.48-4,11,11,0,0,0,1.59-5.91,10.6,10.6,0,0,0-6.07-10,15.23,15.23,0,0,0-7-1.47,14.79,14.79,0,0,0-6.8,1.47,11.44,11.44,0,0,0-4.53,4,11,11,0,0,0-1.63,6,10.84,10.84,0,0,0,1.63,5.91,11,11,0,0,0,4.53,4,15,15,0,0,0,6.8,1.43"/>
      <path class="cls-2" d="M131.51,396.16V352.89H143.9l.57,15.32-3.34-1.14a20.54,20.54,0,0,1,3.87-7.62,21.65,21.65,0,0,1,6.43-5.42,16,16,0,0,1,7.79-2,20.8,20.8,0,0,1,4.52.48,18,18,0,0,1,3.7,1.23l-3.58,14.18a10.22,10.22,0,0,0-3.71-1.51,20.82,20.82,0,0,0-4.6-.53,12.2,12.2,0,0,0-4.61.81,10.36,10.36,0,0,0-3.42,2.24,9.86,9.86,0,0,0-2.16,3.18,9.7,9.7,0,0,0-.73,3.79v20.29Z"/>
      <rect class="cls-2" x="177.23" y="335.86" width="12.63" height="60.3"/>
      <path class="cls-2" d="M264.09,397a38.36,38.36,0,0,1-12.95-2.12,31.53,31.53,0,0,1-10.44-6.07,27.43,27.43,0,0,1-6.92-9.37,28.89,28.89,0,0,1-2.45-12,27.06,27.06,0,0,1,2.57-11.81,29.59,29.59,0,0,1,7-9.37,30.77,30.77,0,0,1,10.43-6.12,39.92,39.92,0,0,1,22.28-1,37.88,37.88,0,0,1,8.44,3.17,28.42,28.42,0,0,1,6.56,4.65l-8.15,10.43A28.47,28.47,0,0,0,276,354a22.13,22.13,0,0,0-5.5-2.37,24.83,24.83,0,0,0-6.77-.85,20,20,0,0,0-6.72,1.14,19.08,19.08,0,0,0-5.79,3.26,15.35,15.35,0,0,0-4.07,5.25,16.37,16.37,0,0,0-1.51,7.13,15.74,15.74,0,0,0,1.55,7.05,15.31,15.31,0,0,0,4.28,5.3,19.1,19.1,0,0,0,6.27,3.26,25.46,25.46,0,0,0,7.54,1.1,21.35,21.35,0,0,0,6.85-1,24.17,24.17,0,0,0,5.46-2.61c1.63-1.06,3.06-2.08,4.31-3.05l6.6,10.67a28.26,28.26,0,0,1-6.07,4.12,42.69,42.69,0,0,1-8.47,3.3,36.88,36.88,0,0,1-9.82,1.3"/>
      <path class="cls-2" d="M320.48,397a32.2,32.2,0,0,1-13.94-2.9,23.43,23.43,0,0,1-9.57-8,21.29,21.29,0,0,1,0-23.27,23.57,23.57,0,0,1,9.57-7.94,35.23,35.23,0,0,1,27.95,0,23.69,23.69,0,0,1,9.5,7.94,21.29,21.29,0,0,1,0,23.27,23.54,23.54,0,0,1-9.5,8,32,32,0,0,1-14,2.9m.08-11.25a16.55,16.55,0,0,0,7-1.43,12.26,12.26,0,0,0,5-3.95,9.34,9.34,0,0,0,1.75-5.86,9.53,9.53,0,0,0-1.75-5.91,12.28,12.28,0,0,0-5-4,16.86,16.86,0,0,0-7-1.42,17.3,17.3,0,0,0-7.09,1.42,11.83,11.83,0,0,0-5,4,10,10,0,0,0-1.79,5.91,9.83,9.83,0,0,0,1.79,5.86,11.81,11.81,0,0,0,5,3.95,17,17,0,0,0,7.09,1.43"/>
      <path class="cls-2" d="M358.45,396.16V352.89h12.39l.57,15.32-3.34-1.14a20.54,20.54,0,0,1,3.87-7.62,21.65,21.65,0,0,1,6.43-5.42,16,16,0,0,1,7.79-2,20.8,20.8,0,0,1,4.52.48,18,18,0,0,1,3.7,1.23l-3.58,14.18a10.22,10.22,0,0,0-3.71-1.51,20.82,20.82,0,0,0-4.6-.53,12.2,12.2,0,0,0-4.61.81,10.36,10.36,0,0,0-3.42,2.24,9.86,9.86,0,0,0-2.16,3.18,9.7,9.7,0,0,0-.73,3.79v20.29Z"/>
      <path class="cls-2" d="M424,397a33.43,33.43,0,0,1-14.38-2.89,22.91,22.91,0,0,1-9.54-7.95,20.08,20.08,0,0,1-3.38-11.41,21.13,21.13,0,0,1,7.5-16.5,25.4,25.4,0,0,1,8.19-4.6,30.06,30.06,0,0,1,10-1.63,27.79,27.79,0,0,1,9.66,1.63,24.35,24.35,0,0,1,7.74,4.52,19.51,19.51,0,0,1,5.05,6.89,19.88,19.88,0,0,1,1.59,8.8l-.08,3.83H405.54l-1.87-7.82h32.1l-1.38,1.71v-1.63a6.22,6.22,0,0,0-1.88-3.83,11.28,11.28,0,0,0-4.19-2.57,16.79,16.79,0,0,0-5.75-.94,18.82,18.82,0,0,0-7,1.23,10.44,10.44,0,0,0-4.85,3.7,10.57,10.57,0,0,0-1.75,6.24,10.13,10.13,0,0,0,2,6.23,13.65,13.65,0,0,0,5.87,4.32,23.24,23.24,0,0,0,9,1.59,23.83,23.83,0,0,0,7.83-1.1,22.38,22.38,0,0,0,5.21-2.57l5.79,8.48a29.78,29.78,0,0,1-6.12,3.42,37.33,37.33,0,0,1-7,2.12A38.34,38.34,0,0,1,424,397"/>
      <path class="cls-2" d="M204.48,371.69l-6.85-8.09-8.7,7.52,6.58,7.9,15,18h15.4Zm4.59-18-11.44,9.88-8.7,7.52,6.58,7.9,0,0,8.93-7.3,22-18Z"/>
      <path class="cls-2" d="M8.24,320.35a29.71,29.71,0,0,1-6.77-.73L.18,308.67q4.11.24,6.77.24,6.93,0,6.93-8.22V256.37H26.53v42.14q0,12.33-4.35,17.09T8.24,320.35"/>
      <path class="cls-2" d="M86.23,290v12.65H77q-.89,9.83-5.93,13.78t-15.1,4a52.56,52.56,0,0,1-11-1.05l-2.74-13.46a47.7,47.7,0,0,0,13.13,1.86q7.91,0,8.95-5.08H61.66q-11.28,0-18.21-6.33t-6.93-16.63v-.08q0-10.49,7.33-16.84t19.5-6.37H77.13V290Zm-25.7,0h4v-21h-4a13.14,13.14,0,0,0-8.74,2.86,9.59,9.59,0,0,0-3.43,7.78v.08a9.14,9.14,0,0,0,3.47,7.53,13.48,13.48,0,0,0,8.7,2.78"/>
      <rect class="cls-2" x="84.62" y="289.97" width="14.1" height="12.65"/>
      <rect class="cls-2" x="97.11" y="289.97" width="14.1" height="12.65"/>
      <rect class="cls-2" x="109.6" y="289.97" width="14.1" height="12.65"/>
      <rect class="cls-2" x="122.09" y="289.97" width="14.1" height="12.65"/>
      <path class="cls-2" d="M119.35,302.49V289.84H235.43v-8.38c0-3-.82-5.3-2.45-6.89a9.29,9.29,0,0,0-6.73-2.38H178.61l-2.13-12.57,37.44-.08h10.8q11.76,0,17.6,5.93t5.84,18.17v18.85Z"/>
      <polygon class="cls-2" points="200.22 237.9 187.85 248.58 171.5 263.65 178.62 272.19 185.6 265.22 195.25 257.33 218.99 237.9 200.22 237.9"/>
      <path class="cls-2" d="M317.7,237.14h12.65v65.35H295.62q-25.86,0-25.86-25.38V262.69h12.65v13.13q0,14,15.95,14H317.7Zm-7.09,16.36v9.67H291.76V252.69a9.59,9.59,0,0,1,2.61-7,9.27,9.27,0,0,1,6.89-2.66h6.53v7.26h-5.72c-1.51,0-2.26.7-2.26,2.09v1.13Z"/>
      <path class="cls-2" d="M343.17,320.21a29.71,29.71,0,0,1-6.77-.73l-1.3-11c2.75.16,5,.24,6.78.24,4.61,0,6.93-2.74,6.93-8.22V256.23h12.65v42.14q0,12.33-4.35,17.09t-13.94,4.75"/>
      <rect class="cls-2" x="373.86" y="237.14" width="12.65" height="65.35"/>
      <path class="cls-2" d="M446.85,274.53a27.05,27.05,0,0,1-2.05,10.59,25.32,25.32,0,0,1-5.84,8.56,27.51,27.51,0,0,1-9.33,5.74,35,35,0,0,1-12.36,2.07H395.83V289.93h21.05a20,20,0,0,0,7.2-1.18,14.06,14.06,0,0,0,5.16-3.32,13.67,13.67,0,0,0,3.07-4.94,16.57,16.57,0,0,0,1.05-6,16.34,16.34,0,0,0-1.05-5.93,13.78,13.78,0,0,0-3.09-4.89,14.91,14.91,0,0,0-5.18-3.35,19,19,0,0,0-7.16-1.23H405.13l-9.3-11.56h21.44a34.52,34.52,0,0,1,12.36,2.07,27.39,27.39,0,0,1,9.28,5.78,25.24,25.24,0,0,1,5.89,8.6,26.8,26.8,0,0,1,2.05,10.51"/>
    </g>
  </g>
</svg>
